<?xml version="1.0" encoding="UTF-8"?>
<svg width="20px" height="20px" viewBox="0 0 20 20" version="1.1" xmlns="http://www.w3.org/2000/svg" xmlns:xlink="http://www.w3.org/1999/xlink">
    <title>gear</title>
    <g id="Symbols" stroke="none" stroke-width="1" fill="none" fill-rule="evenodd">
        <g id="btn/general/update-copy-3" transform="translate(-2.000000, -2.000000)" fill="#363F4D" fill-rule="nonzero" stroke="#363F4D" stroke-width="0.5">
            <g id="gear" transform="translate(3.000000, 3.000000)">
                <path d="M16.6934509,6.70124816 L15.8156433,6.55238341 C15.737503,6.33485412 15.6492004,6.12144471 15.5515595,5.91394043 L16.0684662,5.1907654 C16.518219,4.55891418 16.4459839,3.70555116 15.8984527,3.16337586 L14.8436279,2.10841369 C14.5454864,1.81027223 14.1502533,1.64602659 13.7308502,1.64602659 C13.4005737,1.64602659 13.0847168,1.74778748 12.8196716,1.9385376 L12.09375,2.45558166 C11.8692169,2.34942627 11.6413879,2.25563048 11.4120483,2.17460633 L11.2668915,1.31451416 C11.1391754,0.552749625 10.4857636,0 9.71315002,0 L8.22285461,0 C7.45037842,0 6.79696657,0.552749625 6.66952516,1.31300353 L6.51695252,2.20674132 C6.30148317,2.28543089 6.08903504,2.37483214 5.88098145,2.47467041 L5.16824339,1.96133421 C4.90100098,1.76893615 4.58390809,1.66731261 4.25115967,1.66731261 C3.82763672,1.66731261 3.43226623,1.83183289 3.13742067,2.13066102 L2.08012391,3.18452453 C1.5341034,3.73054504 1.46255491,4.58322145 1.91011046,5.21191406 L2.4353943,5.94992067 C2.33857726,6.15824891 2.25151063,6.37261963 2.17460633,6.59138488 L1.31437684,6.73654177 C0.552749625,6.86439513 1.99840144e-15,7.51780702 1.99840144e-15,8.2902832 L1.99840144e-15,9.78057861 C1.99840144e-15,10.5530548 0.552749625,11.2064667 1.31300353,11.3340454 L2.20674132,11.4864807 C2.28543089,11.7020874 2.3749695,11.9146729 2.47467041,12.1225891 L1.96325684,12.8339539 C1.51350402,13.4658051 1.58573914,14.3193054 2.13327028,14.8613434 L3.1880951,15.9163056 C3.48623655,16.214447 3.88146973,16.3786926 4.30087282,16.3786926 C4.6311493,16.3786926 4.94700623,16.2769318 5.21191406,16.086319 L5.94992067,15.5610352 C6.14382933,15.651123 6.34487913,15.7336578 6.55128478,15.8079529 L6.69754027,16.6856232 C6.82539367,17.4472504 7.47880555,18 8.25128174,18 L9.74501037,18 C10.5174866,18 11.1710358,17.4472504 11.2986145,16.6865845 L11.4474793,15.8086395 C11.6650086,15.7304992 11.878418,15.6421967 12.0859222,15.5445557 L12.8067627,16.0598145 C13.0740051,16.2522125 13.391098,16.3539734 13.7238465,16.3539734 C14.1431122,16.3539734 14.5383453,16.1897278 14.8364868,15.8915863 L15.8913116,14.8366241 C16.4374695,14.2906036 16.5088806,13.4379272 16.0613251,12.8092346 L15.543869,12.0826264 C15.6441193,11.8703155 15.7326965,11.6570435 15.8089142,11.4450073 L16.6854858,11.2988892 C17.4471131,11.1710358 17.9999636,10.5176239 17.9999636,9.74514769 L17.9999636,8.25787354 C18.0085144,7.48457336 17.4597473,6.83033752 16.6934509,6.70124816 Z M16.9452274,9.74514769 C16.9452274,10.0004425 16.7625275,10.2164612 16.5114899,10.2586212 L15.3488617,10.4523926 C15.1343536,10.4880981 14.961319,10.6394348 14.8969116,10.8474884 C14.7936401,11.1821594 14.6517792,11.5242462 14.4755859,11.8637237 C14.375885,12.0551605 14.3918152,12.2832642 14.5170593,12.4587707 L15.2021942,13.4208984 C15.3499603,13.62854 15.3262024,13.9103394 15.1456146,14.0909271 L14.0907898,15.145752 C13.9904022,15.2461395 13.8635101,15.2992859 13.7238465,15.2992859 C13.6137085,15.2992859 13.5097504,15.2663269 13.4215851,15.2028809 L12.4635773,14.518158 C12.287384,14.3916778 12.0583191,14.3757477 11.865921,14.4764099 C11.543747,14.64505 11.2013855,14.786911 10.8483124,14.8977356 C10.6423187,14.9622803 10.4919434,15.1347656 10.4561005,15.3470764 L10.2586212,16.5109405 C10.2164612,16.7626648 10.0004425,16.9453125 9.74501037,16.9453125 L8.25128174,16.9453125 C7.99584961,16.9453125 7.77996826,16.7626648 7.73780822,16.5116272 L7.54403688,15.348999 C7.50860596,15.1358643 7.35864258,14.9631043 7.15264893,14.8980103 C6.804657,14.788147 6.47328185,14.6519165 6.16744997,14.4930267 C6.0840912,14.4497681 5.99386598,14.428482 5.90405273,14.428482 C5.7878723,14.428482 5.67224121,14.4641876 5.57322694,14.5346375 L4.59805296,15.2286987 C4.51016234,15.2920074 4.41018675,15.3240051 4.30087282,15.3240051 C4.1612091,15.3240051 4.03431701,15.2709961 3.93392946,15.1704712 L2.87718202,14.1138611 C2.69686891,13.9353332 2.67393495,13.6543579 2.82101442,13.4476776 L3.50202941,12.5003815 C3.63015745,12.3225403 3.64581299,12.0918274 3.5425415,11.8977814 C3.36936952,11.572998 3.22586058,11.2324219 3.11585998,10.8853912 C3.050766,10.6807709 2.87896729,10.5312195 2.66748047,10.4951019 L1.4889221,10.2941895 C1.23733519,10.2518921 1.0546875,10.0358734 1.0546875,9.78057861 L1.0546875,8.2902832 C1.0546875,8.03498839 1.23733519,7.81896973 1.4893341,7.77667236 L2.63768006,7.58290099 C2.85232542,7.54678343 3.02522277,7.39503478 3.08908083,7.18629455 C3.19743348,6.83171082 3.33682249,6.48880003 3.50340272,6.16744997 C3.60255431,5.97642518 3.58662414,5.74887087 3.46179199,5.57322694 L2.76937868,4.60038758 C2.62147521,4.39274598 2.64523317,4.11094666 2.8252716,3.9309082 L3.88366699,2.87608338 L3.88751221,2.87210081 C3.98268127,2.7752838 4.11177062,2.72200011 4.25115967,2.72200011 C4.36129762,2.72200011 4.46539307,2.7549591 4.55191038,2.81730653 L5.5033264,3.50216677 C5.68144227,3.63043213 5.9124298,3.64581299 6.10578918,3.5425415 C6.43057249,3.36936952 6.77114866,3.22586058 7.11776735,3.1159973 C7.3223877,3.05104064 7.47193908,2.8795166 7.50833128,2.66748047 L7.70938109,1.4889221 C7.75154113,1.23733519 7.9675598,1.0546875 8.22299196,1.0546875 L9.71328734,1.0546875 C9.96858214,1.0546875 10.1846008,1.23733519 10.2268982,1.4893341 L10.4206695,2.63809202 C10.4569244,2.85287477 10.6089478,3.02563477 10.8178253,3.08935547 C11.1739197,3.1975708 11.5290527,3.34368896 11.8736114,3.52386475 C12.0650482,3.62384033 12.2931519,3.6081848 12.4694824,3.48280334 L13.4338074,2.79602051 C13.5215607,2.7327118 13.6215362,2.70071409 13.7309875,2.70071409 C13.8705139,2.70071409 13.997406,2.75372314 14.0979309,2.85424805 L15.154541,3.91085817 C15.3348541,4.08938597 15.3579254,4.37036133 15.2098847,4.57814025 L14.5244751,5.53710938 C14.3986816,5.71343994 14.3830261,5.94223024 14.4834137,6.13394163 C14.6521912,6.45611572 14.7939148,6.79847716 14.9048767,7.15168761 C14.9695587,7.35768127 15.1419067,7.50791932 15.3542175,7.54376221 L16.5171203,7.74110412 L16.5180817,7.74124144 C16.7689819,7.78340148 16.9487457,7.99626161 16.9452274,8.24743652 L16.9452274,9.74514769 Z" id="Shape"></path>
                <path d="M9,5.50030518 C7.07025146,5.50030518 5.50030518,7.07025146 5.50030518,9 C5.50030518,10.9297485 7.07025146,12.4996948 9,12.4996948 C10.9297485,12.4996948 12.4996948,10.9297485 12.4996948,9 C12.4996948,7.07025146 10.9297485,5.50030518 9,5.50030518 Z M9,11.4450073 C7.65184022,11.4450073 6.55499268,10.3481598 6.55499268,9 C6.55499268,7.65184022 7.65184022,6.55499268 9,6.55499268 C10.3481598,6.55499268 11.4450073,7.65184022 11.4450073,9 C11.4450073,10.3481598 10.3481598,11.4450073 9,11.4450073 Z" id="Shape"></path>
            </g>
        </g>
    </g>
</svg>