<?xml version="1.0" encoding="UTF-8"?>
<svg width="101px" height="22px" viewBox="0 0 101 22" version="1.1" xmlns="http://www.w3.org/2000/svg" xmlns:xlink="http://www.w3.org/1999/xlink">
    <title>visionx_logo</title>
    <g id="Dashboard" stroke="none" stroke-width="1" fill="none" fill-rule="evenodd">
        <g id="Templates" transform="translate(-34.000000, -24.000000)" fill-rule="nonzero">
            <g id="Navigation-/-Top-Bar-#1" transform="translate(0.000000, 0.000000)">
                <g id="visionx_logo">
                    <g transform="translate(34.000000, 24.000000)">
                        <g id="Group-15" transform="translate(26.569446, 4.714142)" fill="#000000">
                            <path d="M24.0255249,0 C25.3710018,0.0605200482 26.5184251,0.265043112 27.5196341,0.965463164 C28.0617512,1.34481058 28.4455889,1.83254298 28.4189023,2.53041159 C28.3968168,3.1063216 28.1796427,3.59446223 27.6239267,3.8581786 C27.0242442,4.14271467 26.4562585,4.08148022 25.8738558,3.74989568 C25.3489163,3.4509695 24.7954497,3.17878237 24.2220449,2.99681399 C23.8847299,2.88975577 23.476864,2.93619189 23.1132713,2.99354815 C22.4704403,3.09489117 22.1793412,3.41575969 22.1564377,3.9394163 C22.135068,4.42725075 22.3964129,4.74322051 23.0568306,4.85946391 C23.8429106,4.99775172 24.6422827,5.06051702 25.4356224,5.15900243 C25.5872557,5.17778099 25.7382754,5.20564267 25.8878637,5.23748458 C27.7967253,5.64428545 28.7034575,6.55902608 28.8583627,8.2318492 C29.0506906,10.3088197 28.2636903,11.7685469 26.464745,12.4331448 C24.3526151,13.2134758 22.2500966,13.0854958 20.2264109,12.085129 C19.8690554,11.9084676 19.5406359,11.6347496 19.2625223,11.3449066 C18.6066035,10.661224 18.5938226,9.60646055 19.1906421,8.98299179 C19.7671144,8.38085303 20.7968507,8.36033949 21.5029729,8.99881068 C22.3102182,9.7290315 23.2307539,10.063984 24.3082397,9.96243682 C24.558951,9.9387595 24.8132408,9.88119912 25.0498419,9.79516471 C25.4874619,9.6360572 25.6817325,9.28824552 25.6606694,8.83664145 C25.6409356,8.41259288 25.351268,8.18847479 24.9719292,8.12917944 C24.1996527,8.00844552 23.4206278,7.93149422 22.6451815,7.83076355 C22.3585813,7.79351259 22.0703452,7.75636369 21.7892664,7.69145518 C20.0271303,7.28424608 19.1393138,6.34439933 18.9647771,4.71505267 C18.7603841,2.80759954 19.4903301,1.36348709 21.0508338,0.602444933 C22.0391597,0.120427752 23.0995701,0.0029596651 24.0255249,0" id="Fill-1"></path>
                            <path d="M70.2001467,6.22951986 C71.131287,7.43733552 72.0400172,8.62299411 72.9573039,9.8020158 C73.3076148,10.2523047 73.4913777,10.7364929 73.3946068,11.3171715 C73.278991,12.0113924 72.8685802,12.5374441 72.2477182,12.6642602 C71.5434294,12.808128 70.8907857,12.7199081 70.4326007,12.071533 C69.7070223,11.0450582 68.9820551,10.0180728 68.2551524,8.99241478 C68.1587889,8.85651126 68.0527483,8.72744888 67.9237883,8.55948398 C67.1326093,9.67540396 66.3803425,10.7638574 65.5941549,11.8272947 C65.3791197,12.1182977 65.0984839,12.4008259 64.7850478,12.5701182 C64.1542031,12.910949 63.3181021,12.7083701 62.8815123,12.1886489 C62.3736176,11.5839753 62.3477441,10.6920766 62.8560462,10.018277 C63.674423,8.93319312 64.5138855,7.86413994 65.3441802,6.78804142 C65.4581663,6.64029358 65.5704206,6.49121836 65.7165956,6.29936058 C65.2793947,5.72879046 64.8393414,5.15474873 64.3993902,4.58070699 C63.9446685,3.98736717 63.4707965,3.40770959 63.0408279,2.79690958 C62.6031176,2.17508209 62.6520123,1.27532119 63.1063265,0.69566361 C63.5203024,0.16756972 64.3325673,-0.0664579657 64.9978421,0.230773533 C65.30537,0.36820864 65.5984332,0.619594401 65.803282,0.891095107 C66.4475728,1.74480605 67.0461267,2.63323315 67.664544,3.50654851 C67.7600926,3.64143095 67.8673556,3.76804279 67.9981491,3.93559926 C68.7304506,2.90207909 69.4373879,1.90899302 70.1391301,0.912129009 C70.4352491,0.491655182 70.7997192,0.182885669 71.3321631,0.132445146 C72.009458,0.0683223772 72.5963992,0.248029502 72.9387647,0.872715969 C73.2914184,1.51598579 73.3040495,2.18314849 72.8444384,2.79190637 C72.0970611,3.78162293 71.3308389,4.75694251 70.5729695,5.73869477 C70.4589836,5.88644262 70.3471367,6.03582416 70.2001467,6.22951986" id="Fill-3"></path>
                            <path d="M5.84477067,8.06965628 C6.38411434,6.61921172 6.88060913,5.28687055 7.37475184,3.95360989 C7.69944205,3.07764232 8.01595108,2.19871194 8.34462961,1.32427684 C8.73988241,0.272584486 9.62303978,-0.144557526 10.6149044,0.242445644 C11.4227951,0.55762642 11.7687563,1.53228594 11.3661404,2.50091768 C10.577271,4.39905177 9.75935854,6.28502814 8.95453588,8.17652146 C8.49567447,9.25518553 8.03129077,10.3316019 7.58388301,11.4149656 C7.24865955,12.2265689 6.71238381,12.7377032 5.7827983,12.7382146 C4.86282568,12.7388271 4.30497211,12.2557883 3.95624971,11.4446958 C2.7149616,8.55729254 1.45864059,5.6763257 0.219704573,2.78800293 C-0.275767571,1.63291902 0.0924873703,0.555991771 1.06573988,0.224771001 C2.06067249,-0.11380569 2.89668585,0.273503977 3.27629217,1.27676985 C4.08776203,3.42142945 4.88603974,5.57099299 5.69055561,7.7183089 C5.72011008,7.79728288 5.75815253,7.8731919 5.84477067,8.06965628" id="Fill-5"></path>
                            <path d="M13.2549045,6.42430751 C13.2549045,4.85705523 13.2275369,3.28908725 13.2638909,1.72265289 C13.2911564,0.545245539 14.168553,-0.0935562292 15.3190127,0.152640098 C16.0970486,0.319190687 16.5379935,0.911677282 16.5423846,1.8618029 C16.5526985,4.11059369 16.5466735,6.35948672 16.547082,8.60837976 C16.5471842,9.39205702 16.5542303,10.1758365 16.5445291,10.9594115 C16.5303347,12.1126901 15.9494884,12.7348265 14.900738,12.7382147 C13.8464732,12.7415744 13.2652185,12.1428512 13.2500029,10.9731118 C13.230192,9.4570823 13.2451012,7.94064378 13.2451012,6.42430751 C13.248369,6.42430751 13.2516367,6.42430751 13.2549045,6.42430751" id="Fill-7"></path>
                            <path d="M31.0016971,6.46466325 C31.0016971,4.9255597 30.9775824,3.38594863 31.009565,1.8474541 C31.0339862,0.675490134 31.8154631,0.060579542 32.9744971,0.227654952 C33.802977,0.34722654 34.2902761,0.958381488 34.294159,1.94520235 C34.3042748,4.51609299 34.2988593,7.08708514 34.2986549,9.65797577 C34.2985528,10.1653938 34.3134711,10.6737253 34.2880281,11.1799252 C34.2383684,12.1679641 33.62692,12.7370964 32.6463953,12.7382146 C31.6575941,12.7393295 31.0366428,12.1873514 31.0154915,11.1830718 C30.982385,9.61097947 31.0067039,8.0375676 31.0067039,6.46466325 C31.0050691,6.46466325 31.003332,6.46466325 31.0016971,6.46466325" id="Fill-9"></path>
                            <path d="M60.5671811,8.0065495 L60.5665668,8.0065495 C60.5665668,7.95861329 60.5669763,7.91067707 60.5671811,7.86274086 L60.5671811,7.78179772 L60.5674884,7.78179772 C60.5721988,6.85821315 60.6015879,5.93361298 60.5589891,5.01226273 C60.4427641,2.49662716 59.1998223,0.795399412 56.9927761,0.28719431 C56.1149958,0.0850903629 55.1622581,0.0658955659 54.2583655,0.1400342 C52.2378938,0.305576629 50.7088439,1.61549457 50.2028811,3.54380998 C50.0417022,4.15814504 49.9786233,4.81127594 49.9676664,5.44836039 C49.9368437,7.22443769 49.954047,9.00142903 49.9602935,10.7779125 C49.9611127,11.0296792 49.9824121,11.2864224 50.0360701,11.5317908 C50.2177293,12.3627529 50.8042815,12.7719371 51.7274255,12.7350709 C52.5711063,12.7014547 53.1105541,12.2437248 53.2366095,11.4328715 C53.2779795,11.1666834 53.2920084,10.894097 53.2928277,10.6244558 C53.2978453,8.98314827 53.286786,7.34184079 53.3011222,5.70073643 C53.3050133,5.26413096 53.3292823,4.81645549 53.4310688,4.39437307 C53.6564532,3.45921068 54.3156076,3.00097299 55.3079745,3.01833971 C56.2766869,3.03530019 56.9014346,3.4972956 57.1113564,4.42372384 C57.207306,4.84743121 57.2294246,5.29429421 57.2328038,5.73100123 C57.2461159,7.45670489 57.2282982,9.18271323 57.2427367,10.9084169 C57.2519528,12.011356 57.7418386,12.6275192 58.632419,12.7216651 C59.8109507,12.8462789 60.5083007,12.2643414 60.5671811,11.0713188 L60.5671811,8.0065495 Z" id="Fill-11"></path>
                            <path d="M44.2247275,8.31372797 C44.0392542,9.33995534 43.2779617,9.90376831 42.2120291,9.88846672 C41.1538973,9.87326713 40.3556539,9.33189649 40.266561,8.31485009 C40.1550923,7.04185892 40.1532447,5.7435691 40.2706667,4.47149602 C40.3649943,3.44985914 41.1589268,2.932461 42.2359446,2.93174597 C43.3121413,2.93093084 44.0315561,3.45189935 44.2191849,4.46935379 C44.3381463,5.11436727 44.3369146,5.78131304 44.3893645,6.43550748 C44.3375305,7.06909577 44.3354777,7.70105188 44.2247275,8.31372797 M47.6285268,6.29004026 L47.6288347,6.28973423 C47.633351,5.70766133 47.6622959,5.12395627 47.6211366,4.54514772 C47.4635818,2.33233223 46.0956778,0.635486705 43.9686368,0.17929498 C43.0679571,-0.0139132327 42.0979944,-0.03778373 41.1762731,0.0451509463 C38.9499777,0.245295885 37.2711724,1.73077529 36.9800809,3.92441278 C36.7765427,5.45855127 36.7576567,7.05022379 36.9153141,8.59007488 C37.1255241,10.6431416 38.3211956,12.0669046 40.3818275,12.6005225 C41.1134566,12.7899563 41.9029754,12.8614657 42.6600596,12.8321887 C44.961078,12.7432354 46.6204841,11.6285648 47.2886806,9.74463166 C47.5807985,8.85193628 47.6285268,6.29004026 47.6285268,6.29004026" id="Fill-13"></path>
                        </g>
                        <ellipse id="Oval-Copy-17" fill="#1C2D41" cx="20.5874785" cy="2.76066294" rx="2.04210516" ry="1.95825572"></ellipse>
                        <path d="M-2.35468309,9.02934638 L16.1962077,9.02934638 C17.2777225,9.02934638 18.1544634,9.90608733 18.1544634,10.9876021 C18.1544634,12.0691169 17.2777225,12.9458578 16.1962077,12.9458578 L-2.35468309,12.9458578 C-3.43619786,12.9458578 -4.31293881,12.0691169 -4.31293881,10.9876021 C-4.31293881,9.90608733 -3.43619786,9.02934638 -2.35468309,9.02934638 Z" id="Rectangle-Copy-31" fill="#FF1E59" transform="translate(6.920762, 10.987602) rotate(63.000000) translate(-6.920762, -10.987602) "></path>
                        <path d="M5.24746737,6.30359927 L17.6800031,6.30359927 C18.7615178,6.30359927 19.6382588,7.18034022 19.6382588,8.26185499 C19.6382588,9.34336976 18.7615178,10.2201107 17.6800031,10.2201107 L5.24746737,10.2201107 C4.1659526,10.2201107 3.28921165,9.34336976 3.28921165,8.26185499 C3.28921165,7.18034022 4.1659526,6.30359927 5.24746737,6.30359927 Z" id="Rectangle-Copy-32" fill="#FFB02F" transform="translate(11.463735, 8.261855) rotate(63.000000) translate(-11.463735, -8.261855) "></path>
                        <path d="M12.8903259,3.48848332 L19.0039047,3.48848332 C20.0854195,3.48848332 20.9621604,4.36522427 20.9621604,5.44673904 C20.9621604,6.5282538 20.0854195,7.40499475 19.0039047,7.40499475 L12.8903259,7.40499475 C11.8088111,7.40499475 10.9320702,6.5282538 10.9320702,5.44673904 C10.9320702,4.36522427 11.8088111,3.48848332 12.8903259,3.48848332 Z" id="Rectangle-Copy-33" fill="#1872FF" transform="translate(15.947115, 5.446739) rotate(63.000000) translate(-15.947115, -5.446739) "></path>
                    </g>
                </g>
            </g>
        </g>
    </g>
</svg>